HIERARCHY
ROOT pelvis
{
	OFFSET 0.000000 0.000000 0.000000
	CHANNELS 6 Xposition Yposition Zposition Xrotation Yrotation Zrotation
	JOINT l_hip
	{
		OFFSET 0.195211 -0.245059 -0.022011
		CHANNELS 3 Xrotation Yrotation Zrotation
		JOINT l_knee
		{
			OFFSET 0.083896 -0.996307 -0.018298
			CHANNELS 3 Xrotation Yrotation Zrotation
			JOINT l_ankle
			{
				OFFSET -0.031606 -1.048662 -0.119000
				CHANNELS 3 Xrotation Yrotation Zrotation
				JOINT l_foot
				{
					OFFSET 0.063841 -0.149483 0.312863
					CHANNELS 3 Xrotation Yrotation Zrotation
					End Site
					{
						OFFSET 0.000000 0.000000 0.000000
					}
				}
			}
		}
	}
	JOINT r_hip
	{
		OFFSET -0.188785 -0.243354 -0.013119
		CHANNELS 3 Xrotation Yrotation Zrotation
		JOINT r_knee
		{
			OFFSET -0.098896 -1.013926 -0.025127
			CHANNELS 3 Xrotation Yrotation Zrotation
			JOINT r_ankle
			{
				OFFSET 0.038376 -1.049454 -0.114596
				CHANNELS 3 Xrotation Yrotation Zrotation
				JOINT r_foot
				{
					OFFSET -0.060300 -0.126955 0.322518
					CHANNELS 3 Xrotation Yrotation Zrotation
					End Site
					{
						OFFSET 0.000000 0.000000 0.000000
					}
				}
			}
		}
	}
	JOINT spine1
	{
		OFFSET -0.006861 0.282462 -0.060688
		CHANNELS 3 Xrotation Yrotation Zrotation
		JOINT spine2
		{
			OFFSET 0.009796 0.349212 -0.004686
			CHANNELS 3 Xrotation Yrotation Zrotation
			JOINT spine3
			{
				OFFSET 0.005545 0.134239 0.076232
				CHANNELS 3 Xrotation Yrotation Zrotation
				JOINT neck
				{
					OFFSET -0.005369 0.569656 -0.136135
					CHANNELS 3 Xrotation Yrotation Zrotation
					JOINT head
					{
						OFFSET 0.009621 0.170484 0.137338
						CHANNELS 3 Xrotation Yrotation Zrotation
						End Site
						{
							OFFSET 0.000000 0.000000 0.000000
						}
					}
				}
				JOINT l_collar
				{
					OFFSET 0.205981 0.322192 -0.100872
					CHANNELS 3 Xrotation Yrotation Zrotation
					JOINT l_shoulder
					{
						OFFSET 0.233388 0.086823 -0.019950
						CHANNELS 3 Xrotation Yrotation Zrotation
						JOINT l_elbow
						{
							OFFSET 0.687295 -0.032736 -0.075278
							CHANNELS 3 Xrotation Yrotation Zrotation
							JOINT l_wrist
							{
								OFFSET 0.651109 0.024639 0.000120
								CHANNELS 3 Xrotation Yrotation Zrotation
								JOINT l_hand
								{
									OFFSET 0.217934 -0.026487 -0.036124
									CHANNELS 3 Xrotation Yrotation Zrotation
									End Site
									{
										OFFSET 0.000000 0.000000 0.000000
									}
								}
							}
						}
					}
				}
				JOINT r_collar
				{
					OFFSET -0.210726 0.316244 -0.114374
					CHANNELS 3 Xrotation Yrotation Zrotation
					JOINT r_shoulder
					{
						OFFSET -0.244017 0.089684 -0.026814
						CHANNELS 3 Xrotation Yrotation Zrotation
						JOINT r_elbow
						{
							OFFSET -0.672913 -0.035979 -0.055153
							CHANNELS 3 Xrotation Yrotation Zrotation
							JOINT r_wrist
							{
								OFFSET -0.670689 0.023586 -0.009661
								CHANNELS 3 Xrotation Yrotation Zrotation
								JOINT r_hand
								{
									OFFSET -0.219937 -0.019827 -0.028502
									CHANNELS 3 Xrotation Yrotation Zrotation
									End Site
									{
										OFFSET 0.000000 0.000000 0.000000
									}
								}
							}
						}
					}
				}
			}
		}
	}
}
MOTION
Frames: 15
Frame Time: 0.016667
0.000000 0.000000 0.000000 0.000000 0.000000 0.000000 7.609270 1.310813 3.981869 2.944835 0.547850 -4.969542 0.000000 0.000000 0.000000 0.000000 0.000000 0.000000 2.810127 -7.325249 -8.150792 13.063393 -5.925811 0.876038 0.000000 0.000000 0.000000 0.000000 0.000000 0.000000 4.794273 -3.122464 0.084690 7.501511 -6.796971 -3.171893 5.294795 -4.463514 0.533157 -17.003961 22.478091 -2.810109 4.541206 22.640619 -13.720743 -4.454759 -16.663434 -10.734002 -15.696561 -35.764884 -69.824984 163.158699 -70.068829 178.238361 0.000000 0.000000 0.000000 0.000000 0.000000 0.000000 -9.495915 16.268319 4.552006 -12.472520 42.876020 52.719270 139.697995 74.241168 -156.213379 0.000000 0.000000 0.000000 0.000000 0.000000 0.000000 
0.000000 0.000000 0.000000 0.000000 0.000000 0.000000 7.714898 1.301236 3.989305 2.850911 0.496831 -4.882575 0.000000 0.000000 0.000000 0.000000 0.000000 0.000000 3.286998 -7.683065 -8.029262 12.330260 -6.230756 0.848098 0.000000 0.000000 0.000000 0.000000 0.000000 0.000000 4.539291 -2.919066 -0.010838 7.396749 -6.844610 -3.098405 5.364206 -4.426555 0.616791 -16.982645 22.669657 -2.620764 5.163278 22.491573 -13.867991 -4.888980 -17.240284 -10.488485 -16.319709 -36.633315 -70.483242 161.726320 -70.889664 175.851097 0.000000 0.000000 0.000000 0.000000 0.000000 0.000000 -9.803756 16.836405 4.576436 -13.342257 43.983177 53.447846 135.708983 75.431680 -150.400046 0.000000 0.000000 0.000000 0.000000 0.000000 0.000000 
0.000000 0.000000 0.000000 0.000000 0.000000 0.000000 7.934841 1.367715 3.996732 2.652934 0.374073 -4.874288 0.000000 0.000000 0.000000 0.000000 0.000000 0.000000 3.586329 -7.836321 -7.916380 11.880990 -6.247993 0.724557 0.000000 0.000000 0.000000 0.000000 0.000000 0.000000 4.147400 -2.871399 -0.060615 7.272853 -6.798966 -3.224923 5.422651 -4.249893 0.520140 -16.707745 22.790544 -2.252837 5.860190 22.411981 -13.983210 -5.481369 -17.678463 -10.632100 -16.390050 -37.544396 -70.407244 161.364428 -71.881774 174.343424 0.000000 0.000000 0.000000 0.000000 0.000000 0.000000 -10.070668 17.648447 4.718306 -13.943391 45.325474 53.453396 131.930814 77.004082 -144.400196 0.000000 0.000000 0.000000 0.000000 0.000000 0.000000 
0.000000 0.000000 0.000000 0.000000 0.000000 0.000000 8.349979 1.445004 4.009513 2.393282 0.301109 -4.742421 0.000000 0.000000 0.000000 0.000000 0.000000 0.000000 4.165552 -7.861704 -7.664628 11.418998 -6.233857 0.526918 0.000000 0.000000 0.000000 0.000000 0.000000 0.000000 4.017784 -2.819190 -0.014779 7.340086 -6.849398 -3.101389 5.415455 -4.284457 0.681880 -16.600120 22.994273 -2.197389 6.181136 22.575100 -14.148202 -5.609568 -18.458692 -10.851199 -16.631566 -37.997578 -70.907385 160.528183 -71.523854 173.343734 0.000000 0.000000 0.000000 0.000000 0.000000 0.000000 -10.193368 18.497518 4.941984 -14.412728 45.973544 53.837672 130.667195 77.193567 -142.404537 0.000000 0.000000 0.000000 0.000000 0.000000 0.000000 
0.000000 0.000000 0.000000 0.000000 0.000000 0.000000 8.581337 1.455337 4.008099 2.262870 0.357816 -4.790427 0.000000 0.000000 0.000000 0.000000 0.000000 0.000000 4.406497 -7.851104 -7.641064 11.280563 -6.191495 0.443117 0.000000 0.000000 0.000000 0.000000 0.000000 0.000000 3.868581 -2.893969 0.064983 7.490124 -6.956830 -3.097253 5.424320 -4.271555 0.657163 -16.586265 23.107773 -2.299797 6.124836 22.749156 -14.185826 -5.487158 -18.579651 -10.894687 -17.089627 -37.693759 -71.644229 159.103584 -71.034259 172.704897 0.000000 0.000000 0.000000 0.000000 0.000000 0.000000 -10.050324 18.696387 5.115632 -14.790852 45.908194 54.709187 127.684961 76.122177 -139.434749 0.000000 0.000000 0.000000 0.000000 0.000000 0.000000 
0.000000 0.000000 0.000000 0.000000 0.000000 0.000000 8.595121 1.295249 3.973572 2.200475 0.570065 -4.765589 0.000000 0.000000 0.000000 0.000000 0.000000 0.000000 4.363193 -7.683639 -7.592106 11.205729 -6.253437 0.350023 0.000000 0.000000 0.000000 0.000000 0.000000 0.000000 3.528508 -2.922223 0.016598 7.600497 -6.982410 -2.954240 5.391732 -4.244557 0.699326 -16.770460 23.403469 -2.276603 6.212612 22.847522 -14.210319 -5.279631 -18.525652 -10.764628 -17.131776 -37.569604 -71.906471 160.652060 -70.131460 175.264142 0.000000 0.000000 0.000000 0.000000 0.000000 0.000000 -9.978990 18.672578 5.367900 -15.376803 45.902040 55.735954 127.915996 76.167767 -140.660242 0.000000 0.000000 0.000000 0.000000 0.000000 0.000000 
0.000000 0.000000 0.000000 0.000000 0.000000 0.000000 8.670506 1.221185 3.901250 2.104730 0.567881 -4.689700 0.000000 0.000000 0.000000 0.000000 0.000000 0.000000 4.406579 -7.506666 -7.589474 11.161074 -6.289386 0.321448 0.000000 0.000000 0.000000 0.000000 0.000000 0.000000 3.373596 -2.999411 0.015939 7.496932 -6.956001 -2.912811 5.339385 -4.235461 0.660417 -16.860712 23.668783 -2.056232 6.460483 22.816695 -14.370605 -5.078027 -18.033723 -10.775492 -16.614824 -37.327080 -71.556951 161.719046 -69.884523 176.702903 0.000000 0.000000 0.000000 0.000000 0.000000 0.000000 -10.039859 18.404353 5.685688 -15.712704 46.021736 56.450015 129.597113 76.667162 -143.054845 0.000000 0.000000 0.000000 0.000000 0.000000 0.000000 
0.000000 0.000000 0.000000 0.000000 0.000000 0.000000 8.036654 0.672973 4.103126 2.097367 0.285964 -4.909508 0.000000 0.000000 0.000000 0.000000 0.000000 0.000000 3.798451 -7.606036 -7.589380 11.331099 -5.070981 0.270501 0.000000 0.000000 0.000000 0.000000 0.000000 0.000000 1.765718 -2.802717 -0.348142 8.457998 -7.272901 -2.152029 5.598055 -4.176712 0.880933 -16.280865 24.189615 -3.109230 5.515440 22.476019 -14.073913 -4.742056 -18.761060 -8.695911 -15.953945 -38.062021 -71.772814 178.836400 -70.163780 -168.011444 0.000000 0.000000 0.000000 0.000000 0.000000 0.000000 -9.960544 18.103049 5.100274 -15.962877 46.334151 57.335278 138.282612 76.672748 -153.131050 0.000000 0.000000 0.000000 0.000000 0.000000 0.000000 
0.000000 0.000000 0.000000 0.000000 0.000000 0.000000 7.412713 1.706209 4.250094 2.548245 -1.198063 -5.068181 0.000000 0.000000 0.000000 0.000000 0.000000 0.000000 3.525816 -7.873997 -7.596576 11.540212 -3.794342 0.107196 0.000000 0.000000 0.000000 0.000000 0.000000 0.000000 1.044540 -2.653086 -0.120454 9.177036 -6.999404 -2.044680 5.142210 -4.229969 0.616672 -13.714977 23.984510 -4.112811 3.047775 22.196120 -14.582879 -4.500508 -17.542991 -7.605855 -17.175457 -35.092040 -71.564749 166.980727 -76.149049 179.453325 0.000000 0.000000 0.000000 0.000000 0.000000 0.000000 -9.755366 16.915252 4.486880 -17.708600 44.941177 61.303834 131.580066 73.729428 -148.167855 0.000000 0.000000 0.000000 0.000000 0.000000 0.000000 
0.000000 0.000000 0.000000 0.000000 0.000000 0.000000 7.543051 2.143841 4.315699 2.384668 -1.518497 -5.076665 0.000000 0.000000 0.000000 0.000000 0.000000 0.000000 3.691874 -7.887179 -7.584311 11.393592 -3.726431 0.173743 0.000000 0.000000 0.000000 0.000000 0.000000 0.000000 0.996588 -2.635885 0.029857 9.357235 -6.792589 -2.024421 4.842954 -4.269011 0.595727 -13.193023 24.055927 -3.885543 2.848207 22.175329 -15.046910 -4.385494 -16.780504 -8.158096 -17.454755 -33.807766 -71.778838 154.653770 -76.374856 167.406847 0.000000 0.000000 0.000000 0.000000 0.000000 0.000000 -9.644112 16.370383 4.815722 -17.925053 44.058301 62.260220 128.927804 72.098789 -146.357985 0.000000 0.000000 0.000000 0.000000 0.000000 0.000000 
0.000000 0.000000 0.000000 0.000000 0.000000 0.000000 7.615729 2.303113 4.343310 2.071088 -1.558166 -5.076600 0.000000 0.000000 0.000000 0.000000 0.000000 0.000000 3.594653 -7.829516 -7.608339 11.410188 -3.738208 0.217230 0.000000 0.000000 0.000000 0.000000 0.000000 0.000000 0.952541 -2.556175 0.049260 9.369342 -6.523182 -2.143258 4.592947 -4.198193 0.475075 -13.347589 23.928712 -3.485314 2.847853 21.811757 -15.128694 -4.588939 -16.181122 -8.846646 -18.105423 -33.229932 -72.152155 150.420298 -76.492376 164.090398 0.000000 0.000000 0.000000 0.000000 0.000000 0.000000 -9.554469 15.844546 5.299534 -17.814297 43.385380 62.854446 129.630222 71.245119 -148.506664 0.000000 0.000000 0.000000 0.000000 0.000000 0.000000 
0.000000 0.000000 0.000000 0.000000 0.000000 0.000000 7.613725 2.354608 4.369669 2.053414 -1.556677 -5.085084 0.000000 0.000000 0.000000 0.000000 0.000000 0.000000 3.556958 -7.816983 -7.592601 11.454022 -3.737625 0.221479 0.000000 0.000000 0.000000 0.000000 0.000000 0.000000 0.970105 -2.536556 0.071285 9.413033 -6.499722 -2.124749 4.546680 -4.185130 0.484339 -13.382574 23.930769 -3.505513 2.706477 21.756575 -15.087219 -4.560483 -16.216265 -8.810221 -18.158643 -33.047198 -72.055671 149.324732 -76.500772 163.161562 0.000000 0.000000 0.000000 0.000000 0.000000 0.000000 -9.502767 15.859240 5.306788 -17.813746 43.186865 62.943839 129.436904 71.049668 -148.518536 0.000000 0.000000 0.000000 0.000000 0.000000 0.000000 
0.000000 0.000000 0.000000 0.000000 0.000000 0.000000 7.629105 2.449437 4.392498 1.999446 -1.598949 -5.091376 0.000000 0.000000 0.000000 0.000000 0.000000 0.000000 3.506503 -7.815534 -7.593039 11.527821 -3.741721 0.236423 0.000000 0.000000 0.000000 0.000000 0.000000 0.000000 0.956381 -2.453537 0.088494 9.471189 -6.416279 -2.073691 4.481249 -4.135357 0.501190 -13.333219 23.910002 -3.428644 2.553295 21.582314 -15.022880 -4.569875 -16.139635 -8.784606 -18.280294 -32.766090 -71.958779 146.888151 -76.710818 160.827689 0.000000 0.000000 0.000000 0.000000 0.000000 0.000000 -9.426160 15.739776 5.358461 -17.804214 42.862114 63.230873 129.248615 70.618451 -148.710000 0.000000 0.000000 0.000000 0.000000 0.000000 0.000000 
0.000000 0.000000 0.000000 0.000000 0.000000 0.000000 7.587667 2.701456 4.317981 1.714203 -1.734689 -5.100957 0.000000 0.000000 0.000000 0.000000 0.000000 0.000000 3.151823 -7.795323 -7.652886 11.712925 -3.655281 0.209788 0.000000 0.000000 0.000000 0.000000 0.000000 0.000000 0.735866 -2.244583 0.001034 9.572458 -6.228348 -2.065073 4.307127 -3.994230 0.465187 -13.402381 23.760170 -3.246906 1.738833 21.105526 -14.794317 -4.705847 -16.275381 -8.683995 -18.340514 -32.535635 -71.880229 141.003897 -77.170053 154.059169 0.000000 0.000000 0.000000 0.000000 0.000000 0.000000 -9.200221 15.787136 5.284060 -17.574995 42.356047 63.860044 129.763870 69.581393 -149.409327 0.000000 0.000000 0.000000 0.000000 0.000000 0.000000 
0.000000 0.000000 0.000000 0.000000 0.000000 0.000000 7.561348 2.752679 4.286613 1.644351 -1.772972 -5.136787 0.000000 0.000000 0.000000 0.000000 0.000000 0.000000 3.091399 -7.851179 -7.701276 11.707040 -3.562672 0.188489 0.000000 0.000000 0.000000 0.000000 0.000000 0.000000 0.608627 -2.290224 -0.010416 9.661327 -6.276937 -2.098845 4.302672 -4.026885 0.475939 -13.706697 23.729119 -3.133245 1.444363 21.193253 -14.729726 -4.674725 -16.562576 -8.696813 -18.168506 -32.696400 -71.967953 140.895038 -76.617134 153.403074 0.000000 0.000000 0.000000 0.000000 0.000000 0.000000 -9.130592 16.106348 5.130355 -17.387237 42.434486 63.661181 130.173484 69.417223 -149.234525 0.000000 0.000000 0.000000 0.000000 0.000000 0.000000 
